<svg width="32" height="32" viewBox="0 0 32 32" fill="none" xmlns="http://www.w3.org/2000/svg">
  <rect width="32" height="32" rx="8" fill="url(#gradient)"/>
  <path d="M8 12c0-2.5 2-4.5 4.5-4.5h7c2.5 0 4.5 2 4.5 4.5v4c0 2.5-2 4.5-4.5 4.5h-7c-2.5 0-4.5-2-4.5-4.5v-4z" fill="white" opacity="0.9"/>
  <path d="M11 14c0-1.1 0.9-2 2-2h6c1.1 0 2 0.9 2 2v2c0 1.1-0.9 2-2 2h-6c-1.1 0-2-0.9-2-2v-2z" fill="url(#gradient)" opacity="0.3"/>
  <circle cx="14" cy="15" r="1.5" fill="white"/>
  <circle cx="18" cy="15" r="1.5" fill="white"/>
  <path d="M13 18h6c0.5 0 1 0.5 1 1v1h-8v-1c0-0.5 0.5-1 1-1z" fill="white" opacity="0.7"/>
  <defs>
    <linearGradient id="gradient" x1="0%" y1="0%" x2="100%" y2="100%">
      <stop offset="0%" style="stop-color:#f97316"/>
      <stop offset="100%" style="stop-color:#dc2626"/>
    </linearGradient>
  </defs>
</svg>